<svg xmlns="http://www.w3.org/2000/svg" xmlns:xlink="http://www.w3.org/1999/xlink" viewBox="0 0 300.24 65.1"><defs><linearGradient id="a" x1="13.54" y1="50.56" x2="13.54" y2="3.69" gradientUnits="userSpaceOnUse"><stop offset="0" stop-color="#adcb53"/><stop offset="1" stop-color="#6fc6d0"/></linearGradient><linearGradient id="b" x1="3.18" y1="60.08" x2="3.18" y2="12" xlink:href="#a"/><linearGradient id="c" x1="23.91" y1="41.03" x2="23.91" y2="0" xlink:href="#a"/><linearGradient id="d" x1="34.27" y1="41.03" x2="34.27" y2="0" xlink:href="#a"/><linearGradient id="e" x1="44.64" y1="50.56" x2="44.64" y2="3.69" xlink:href="#a"/><linearGradient id="f" x1="55.01" y1="60.08" x2="55.01" y2="12" xlink:href="#a"/></defs><path d="M16.72,6.87a3.18,3.18,0,1,0-6.35,0V50.56l6.35-5.84Z" style="fill:url(#a)"/><path d="M6.35,15.17a3.18,3.18,0,0,0-6.35,0V60.08l6.35-5.83Z" style="fill:url(#b)"/><path d="M27.08,35.2v-32a3.18,3.18,0,1,0-6.35,0V41l5.86-5.38Z" style="fill:url(#c)"/><path d="M37.45,41V3.18A3.18,3.18,0,0,0,34.27,0h0A3.17,3.17,0,0,0,31.1,3.18v32l.49.45Z" style="fill:url(#d)"/><path d="M47.82,6.87a3.18,3.18,0,1,0-6.35,0V44.72l6.35,5.84Z" style="fill:url(#e)"/><path d="M58.18,15.17a3.18,3.18,0,0,0-6.35,0V54.25l6.35,5.83Z" style="fill:url(#f)"/><polygon points="51.83 59.26 47.82 55.57 41.47 49.74 37.45 46.05 31.1 40.21 29.09 38.37 27.08 40.21 20.73 46.05 16.72 49.74 10.37 55.57 6.35 59.26 0 65.1 29.09 54.06 58.18 65.1 51.83 59.26" style="fill:#fff"/><path d="M105.77,9.43v25.9h-4L87.53,17.79V35.33H82.76V9.43h4L101,27V9.43Z" style="fill:#fff"/><path d="M118.06,34a12.62,12.62,0,0,1-5-4.77,13.08,13.08,0,0,1-1.81-6.82,13.09,13.09,0,0,1,1.81-6.83,12.62,12.62,0,0,1,5-4.77,15.68,15.68,0,0,1,14.28,0,12.75,12.75,0,0,1,5,4.75,13.06,13.06,0,0,1,1.81,6.85,13,13,0,0,1-1.81,6.84,12.75,12.75,0,0,1-5,4.75,15.6,15.6,0,0,1-14.28,0Zm11.8-3.66a8.46,8.46,0,0,0,3.25-3.25,9.36,9.36,0,0,0,1.19-4.68,9.37,9.37,0,0,0-1.19-4.69,8.46,8.46,0,0,0-3.25-3.25,9.89,9.89,0,0,0-9.33,0,8.46,8.46,0,0,0-3.25,3.25,9.37,9.37,0,0,0-1.19,4.69,9.36,9.36,0,0,0,1.19,4.68,8.46,8.46,0,0,0,3.25,3.25,9.89,9.89,0,0,0,9.33,0Z" style="fill:#fff"/><path d="M161.57,35.33l-5.29-7.59a8.5,8.5,0,0,1-1,0h-5.85v7.55h-4.81V9.43h10.66a14.32,14.32,0,0,1,5.86,1.11A8.52,8.52,0,0,1,165,13.72a8.88,8.88,0,0,1,1.33,4.92,8.77,8.77,0,0,1-1.42,5,8.44,8.44,0,0,1-4.09,3.15l6,8.51Zm-1.74-20.5a7.39,7.39,0,0,0-4.77-1.33h-5.63V23.82h5.63a7.33,7.33,0,0,0,4.77-1.35,4.72,4.72,0,0,0,1.63-3.83A4.66,4.66,0,0,0,159.83,14.83Z" style="fill:#fff"/><path d="M176.92,13.5h-8.58V9.43h22V13.5h-8.59V35.33h-4.81Z" style="fill:#fff"/><path d="M217.33,9.43v25.9h-4.81V24.23h-13.4v11.1h-4.81V9.43h4.81V20.12h13.4V9.43Z" style="fill:#fff"/><path d="M244.08,31.29v4H224.65V9.43h18.91v4h-14.1v6.73H242v4H229.46v7.14Z" style="fill:#fff"/><path d="M266.76,35.33l-5.29-7.59a8.5,8.5,0,0,1-1,0h-5.85v7.55h-4.81V9.43h10.66a14.32,14.32,0,0,1,5.86,1.11,8.52,8.52,0,0,1,3.83,3.18,8.88,8.88,0,0,1,1.33,4.92,8.77,8.77,0,0,1-1.42,5A8.44,8.44,0,0,1,266,26.82l6,8.51ZM265,14.83a7.39,7.39,0,0,0-4.77-1.33h-5.63V23.82h5.63A7.33,7.33,0,0,0,265,22.47a4.72,4.72,0,0,0,1.63-3.83A4.66,4.66,0,0,0,265,14.83Z" style="fill:#fff"/><path d="M300.24,9.43v25.9h-4L282,17.79V35.33h-4.77V9.43h4L295.47,27V9.43Z" style="fill:#fff"/><path d="M82.76,48.55h7a10.17,10.17,0,0,1,4.57,1,7.42,7.42,0,0,1,3.11,2.83,8.64,8.64,0,0,1,0,8.44,7.42,7.42,0,0,1-3.11,2.83,10,10,0,0,1-4.57,1h-7Zm6.9,13.57a6.69,6.69,0,0,0,3.11-.68,4.78,4.78,0,0,0,2.07-1.93,6.17,6.17,0,0,0,0-5.82,4.84,4.84,0,0,0-2.07-1.93,6.82,6.82,0,0,0-3.11-.68H85.75v11Z" style="fill:#fff"/><path d="M116.57,60.93h-8l-1.59,3.72h-3.08l7.24-16.1h3l7.26,16.1h-3.12Zm-1-2.35-3-7-3,7Z" style="fill:#fff"/><path d="M130.41,51.08h-5.33V48.55h13.66v2.53H133.4V64.65h-3Z" style="fill:#fff"/><path d="M155.23,60.93h-8l-1.59,3.72h-3.08l7.25-16.1h2.94L160,64.65h-3.13Zm-1-2.35-3-7-3,7Z" style="fill:#fff"/></svg>