<svg xmlns="http://www.w3.org/2000/svg" xmlns:xlink="http://www.w3.org/1999/xlink" viewBox="0 0 58.18 65.1"><defs><linearGradient id="a" x1="13.54" y1="50.56" x2="13.54" y2="3.69" gradientUnits="userSpaceOnUse"><stop offset="0" stop-color="#adcb53"/><stop offset="1" stop-color="#6fc6d0"/></linearGradient><linearGradient id="b" x1="3.18" y1="60.08" x2="3.18" y2="12" xlink:href="#a"/><linearGradient id="c" x1="23.91" y1="41.03" x2="23.91" y2="0" xlink:href="#a"/><linearGradient id="d" x1="34.27" y1="41.03" x2="34.27" y2="0" xlink:href="#a"/><linearGradient id="e" x1="44.64" y1="50.56" x2="44.64" y2="3.69" xlink:href="#a"/><linearGradient id="f" x1="55.01" y1="60.08" x2="55.01" y2="12" xlink:href="#a"/></defs><path d="M16.72,6.87a3.18,3.18,0,1,0-6.35,0V50.56l6.35-5.84Z" style="fill:url(#a)"/><path d="M6.35,15.17a3.18,3.18,0,0,0-6.35,0V60.08l6.35-5.83Z" style="fill:url(#b)"/><path d="M27.08,35.2v-32a3.18,3.18,0,1,0-6.35,0V41l5.86-5.38Z" style="fill:url(#c)"/><path d="M37.45,41V3.18A3.18,3.18,0,0,0,34.27,0h0A3.17,3.17,0,0,0,31.1,3.18v32l.49.45Z" style="fill:url(#d)"/><path d="M47.82,6.87a3.18,3.18,0,1,0-6.35,0V44.72l6.35,5.84Z" style="fill:url(#e)"/><path d="M58.18,15.17a3.18,3.18,0,0,0-6.35,0V54.25l6.35,5.83Z" style="fill:url(#f)"/><polygon points="51.83 59.26 47.82 55.57 41.47 49.74 37.45 46.05 31.1 40.21 29.09 38.37 27.08 40.21 20.73 46.05 16.72 49.74 10.37 55.57 6.35 59.26 0 65.1 29.09 54.06 58.18 65.1 51.83 59.26" style="fill:#303031"/></svg>